<?xml version="1.0" encoding="UTF-8" standalone="no"?>
<svg id="svg2" xmlns:rdf="http://www.w3.org/1999/02/22-rdf-syntax-ns#" xmlns="http://www.w3.org/2000/svg" height="4646pt" width="3708pt" version="1.1" xmlns:cc="http://creativecommons.org/ns#" xmlns:dc="http://purl.org/dc/elements/1.1/" viewBox="0 0 3708 4646">
<path id="path6" d="m3423.5 28.555c-180.1 0.131-361.6 31.164-527.7 102.3-9.9 2.91-18 9.44-22.1 19.11-87.4 128.58-145 274.62-190.4 422.5 0.4 0.64 1.2 1.93 1.6 2.57 61.6-144.27 129.8-286.66 218.7-416.35 1.5-2.89 3.7-5.8 6.9-6.97 149.2-60.495 310.3-92.607 470.9-94.882-126 93.902-212.4 229.34-284 366.81 18.7-15.71 35.9-33.2 54.8-48.7 3.4-2.4 2.1 1.31 1.8 3.58 11.9-9.98 21.5-22.39 32.1-33.69-10.1 6.64-17.8 16.47-27.4 23.87 63.7-134.7 166.7-248.97 282.3-340.07-5.8-0.063-11.6-0.09-17.5-0.085zm132.7 34.088c-12.1 0.165-23.1 8.252-33.8 13.533-120.7 60.914-223.6 151.45-316.1 248.85 108.2-93.02 220.1-186.05 351.5-244.73 168.5 29.9 336 89.04 472.4 194.79-99.6 22.02-193 71.72-266.3 142.57 131.9-44.67 272.6-67.75 411.8-53.35 16.7-0.06 29.7 11.69 44.2 18.26 105.1 56.1 205.9 129.17 268.7 232.53 27.6 44.55 47.1 93.78 59.6 144.58 0.2 1.57 0.4 3.18 0.3 4.79-89.5 60.43-207.9 89.67-310.9 46.73-165.8-88.94-309.9-211.48-453.9-331.13 3.2 11.04 10.6 20.43 13.6 31.49-5 0.08 0.9 4.3 2.4 5.9 0.2-0.37 0.5-1.11 0.7-1.47 135.9 122.32 267.5 258.21 437.2 333.9 127.8 42.06 260.1-10.43 373.7-68.01-22.1-112.74-88.8-212.52-171.7-290.18-70.9-65.58-151.9-119.8-237.5-164.01-135.7-9.13-274.7 14.31-397 74.87 80.4-75.71 191-107.96 297.2-127.53-160.7-107.73-344.4-185.95-537.5-211.1-3-0.942-5.8-1.326-8.6-1.287zm-775.1 144.75c-141.9 62.12-276.4 148.98-375.2 269.93-47.8 143.15-42.9 296.37-45.5 445.14-39.8-108.73-43.4-227.51-47.6-341.6-77.9 173.25-111.6 363.04-126.5 551.44-45.1-117.3-124.1-233.56-244.9-283.64 39.7 106.76 58.6 219.84 72.5 332.44-48.8-126.1-93-259.5-179.8-366.49-132.7-73.12-281.7-124.94-434.8-122.82-2.7-0.15-3.9 1.01-1.5 3.05 96.8 83.29 171.5 190.85 222.1 307.66 6.1 10 13.5 19 21.3 27.7-45.3-115.44-103.2-232.56-203.8-309.66 135.7-2.05 263.8 52.57 386.1 105.87 86.3 117.51 139.1 255.49 198.9 387.59-10.7-106.2-17.1-214.69-52.6-316.29 93.2 49.05 159.6 138.09 197.9 234.59 37.3 92.2 54.8 191 70 288.9-137.1-104.1-281.4-200.8-439.3-270.9-182.6-82.3-384.5-129.4-585.4-110.6-47.3-52.58-92.2-107.94-146.9-153.29-60.6-52.57-133.71-90.62-211.51-110.23 143.45-64.45 306.21-103.28 462.31-65.68 116.8 74.64 207.5 181.5 296.9 285.62-78.9-109.98-166.9-216.75-278.8-294.83-7.4-5.15-15-11.02-24.3-11.9-108.2-25.6-221.5-8.85-326.76 22.05-64.2 19.3-127.33 42.68-189.09 68.53 148.26 47.65 285.95 131.18 391.35 246.33-147.6-83.79-304.79-167-478.4-172.92-13.09-4.28-22.29 7.85-33.3 12.36-137.84 79.95-268.98 182.16-353.03 319.36 85.59 1.9 174.06 12.4 254.64 38.7-116.17-11.1-233.65 10.5-343.04 49.2-112.05 151.6-207.58 328.8-210.12 521.8 122.55-7.7 243.88-31.7 361.01-68.2 67.07-139.2 148.59-271.3 242.08-394.3 2.1-1 4.89-11.1 6.57-4.9 7.13-14.2 12.78-29.2 20.43-43.2 104.58-49.5 210.89-96.2 321.42-131 138.54-43.8 285.44-66.8 430.44-49.4 162.4 17.5 316.1 82 454.2 167.1 97.9 60.2 189.3 130.5 276.1 205.6-10.6 5.5-22.2 10.9-34.5 9.1-219.5-30.4-445.4-43.3-663.4 4.3 47.2-109.4 102.7-214.9 159.1-319.8-121.6 120.3-227.9 255.6-325.3 396-7.6 9.9-12 22.8-23.9 28.6-75.1 47.6-140.7 108.6-199.3 175.1-72.55-11.4-151.61-23.4-210.06-71.2 85.79-182.6 196.76-351.7 307.06-519.9-129.6 163.8-250.7 337.1-335.93 528.6 61.24 52.4 142.03 75.9 220.93 83.7-25.6 33-52.01 65.8-73.76 101.3 125.66-21.9 253.26-31.6 380.66-33.7-0.2 0.5-0.7 1.5-1 2 16.9-2.6 51.4-10.1 69.9-15.3-122.2-4.7-246.4-7.7-366.7 18.5 55.8-115.3 153.8-205.1 259.6-274.5 167.4-15.9 334.8 10.5 501.2 27-75.4-74.4-184.4-102.5-287.8-104.4 180.7-46.5 369.9-29.5 553.2-9.6-229.3 90.8-452.1 211.7-628.6 386.8-122.1 118.4-219.8 261.4-287.9 417.1-117 267.2-147.6 562.2-166.5 850.2 28.2-236.8 57.8-475.4 130.8-703.4 37.4-115.2 86.5-227.1 152-329.3 78.8-124.6 181.7-233.1 298.8-322.4 173.5-132.5 374.2-224.1 579.5-295.5 24.8-17 41.8 19.4 57.5 31.4-173.7 44.1-343.6 107.6-498.1 199.2-191.3 111.8-353.9 273.7-460.3 468.5-55.8 100.6-98.1 208.2-130.3 318.5-53.9 181.7-80 369.9-112.59 556.3 0.38 0.7 1.19 2.1 1.49 2.8 60.2-291.7 113.1-591.7 254.1-857.4 54.7-102.3 123.9-197.1 206.7-278.3 207.6-203.4 486-314.7 764.1-382.7 46.9 79.6 79.3 171.6 74.7 265-29.6 97.6-88.9 186.6-170.6 248.3-40-100.3-103.8-190-180.9-265.2-27.4-26.4-53.1-54.5-80.4-80.8 67.8 163.8 138.4 328.3 173.3 503 1.4 8.4 4.7 18-0.5 25.8-49.9 110.4-104.1 220.2-178.9 316.1-100.6-201.4-223.3-390.8-349.9-576.6 81.3 259.7 161.7 520.1 225.3 784.9 1.8 7.7-3.8 13.9-6.8 20.4-25.6 47.2-54.3 94.2-95.4 129.5-24 20.1-54.8 38.4-86.9 36-81.7-147.1-160.3-296.2-242.7-442.9 78.7 164.3 159.4 327.9 239.5 491.5 47.6-7.1 88.5-39.1 122.8-71.9 42.9-44.3 79.6-94.6 111.3-147.4-67.4-258.3-156.1-510.5-251.1-759.9 112.8 194.1 220.9 391.7 328.7 588.9 4.7 7.2 7 15.5 8.5 24 8.9 37.3 37.7 68.7 74 81.1 93.1 31.4 195-5.1 272.5-58.6 4.9 28.6 8 57.6 7.6 86.7-18.5 3.3-41.7 9.3-46.1 30.7-5.3 34.3 18.3 63 33.1 91.6 15.1 46.1 19.7 94.9 21.7 143.1-22.9 2.4-54.4 9.2-56.1 37.9 0.6 30.7 19.2 57 35.2 82 11.9 36.8 20.3 75.6 20.8 114.4-25.8 9.7-56.4 20.1-68.6 47.3-8.9 23.9 6 46.5 17.4 66.2 20.9 52.4 29.1 108.8 36.4 164.4-22 9.7-49.8 18.6-57.8 44.1-7.7 33.4 21.4 56.8 30.7 85.9 18.8 52.3 27.9 107.6 34.5 162.7-21.6 3-45.4 5.1-62.3 20.4-18.9 16.6-15.5 45.1-8.2 66.6 9.1 27.8 26.3 51.8 40.3 77.2 19 57.5 26.1 118.2 28.8 178.5-32.3 1.1-70.8 19.3-73.2 55.5-1.6 48.9 25.9 91.9 48.5 133.2 13.2 47.4 24.2 96.2 26 145.5-40.4 15.9-87.5 40-96.8 86.6-8.3 45 26.2 79 38 119.4 20 58.6 34.3 119.1 44.1 180.1-32.3 21.5-69 45-79.9 84.9-12 48.1 13.6 94.4 38.5 133.7 8.1 27 13.6 54.8 20.2 82.2-18.6-17.3-34.6-38.7-57-51.9 11.3 57.8 26.1 117.2 21 175.8-19.1-38.1-54.4-68-95.4-80 23.7 42 38.3 88.7 45 136.4-49.8-75.3-115.4-145.4-202.4-176.5 47.9 79.4 71.1 170.6 86.2 261.3-53.3-35.6-119-57.7-182.6-53 82 43.1 153.9 106 209.9 179.3-82.6-19.5-179.4 9.4-227 81.3 75.7-13.4 153.8-19.3 229.8-5.2-42.4 21.7-85.7 44.2-125.2 71.4 62.9-26.6 124.4-57.4 189.8-77.7 67.1-22.4 137.1-36.1 207.8-39.5 128.6 12.7 232.4 95.4 342.3 154.8-67.5-48.7-133.5-101.3-208.3-139 16.4-23.7 51.5-19.5 76.4-15.3 25.1 1.2 48.3 18.6 73.5 11.6 47-4.8 77.4 39.2 96.4 75.9 131.9-78.4 294.8-81.4 442.1-98.3-31.7 1-63.3-2.2-95-1.2-28.4-0.1-56.7 0-85.1-0.1-9.8-1.1-21 2.2-29.8 0.6 51.8-56.6 116.7-98.9 184-134.6-83.6-26.7-177 9.2-230.8 76.2 0.5-90.3 17.9-185.9 55.6-270.6-57.2 38.7-94.7 100.1-115.1 165-14-47-4.7-96.5 2.7-143.8-20.6 6.8-40.5 21.1-55.1 34.2 2.7-68.9 9.2-138 22.1-205.7 23-32.3 44.4-67.7 48.9-107.8 3.3-33.1-9.5-66.9-33.9-89.5-26-26.7-61.3-40.3-94.9-54.5 2.1-50.6 8.5-101.3 20-150.7 19.4-37.3 38.6-75.9 44.8-117.9 2-21.5 0.3-45.2-14.6-62.2-18.4-20.7-47.3-27-73.6-29.7 9.7-63.8 18.8-128.5 42.2-189 16-27 29.3-60.8 15.3-91.4-17.5-38.2-59.1-54.1-95.3-69 8.3-68.4 18.1-137.7 43.9-202 13.6-20.6 24-46.9 13.5-71.1-17.9-37.7-60.3-52.6-96.9-65.9-4.3-48.4-1.5-97.7 8.7-145.2 15.7-32.8 39.2-68.2 28.4-106.4-10.7-28.2-44.3-34.6-70.9-36.7 1.5-36.8 5.7-73.9 14.6-109.8 4.9-43.6 47.7-73.7 44.9-119.3-2.8-32-39.2-41.3-66-43.1 7.6-47.1 13.7-95.4 32.8-139.6 10.5-17 21.7-37.5 13.3-57.9-11.8-26.2-40.9-34.9-65.1-45.5 4.5-38 8.7-76.6 18.8-113.4 20.3 39.6 43.8 78.2 74.1 111.1 24.3 25.3 52.9 51 87.9 58.8 104.7-154.5 211.6-307.5 315.6-462.3-105.2 137.1-207.5 276.8-312 414.5-27.5-2.7-52.7-18.7-72-38-43.2-46-68-105.8-86.9-165.1 104.4-256.7 225.8-506.1 347.2-755.1-155 167.9-304.5 342-436.3 528.9-59.2-107.8-97.7-226-128.2-344.8 61.3-176 160.5-335.1 255.8-494.1-62 46.3-124.8 92.1-181 145.3-51.1 49.1-94.9 105.5-131.6 166-12.4-12.3-24.6-25.6-34.7-39.9 50.5-55 77.6-127.6 88.3-200.4-4.9-91.2-24.1-182.3-61.3-265.9 246.6 100.4 488 236.1 659.8 444 97.6 116.6 166.9 255 211.2 400 79.5 261.9 89.5 537.7 107.5 808.8 0.1 4.1 0 26.8 2.2 12.9-10-296.6-8.5-602.1-113.2-884.4-50.5-139-126.4-268.7-223.4-380.4-176.4-202.8-413.8-342.4-661.2-441.2-11.9-3.5-21.6-11.3-30.1-20-120.3-108.2-250.5-206.5-393.7-282.5-195-104.5-419.9-160.8-641.3-132.3-255.21 28.1-483.34 154.4-705.32 274 58.56-23.6 114.18-56.6 172.6-81.7-103.08 126.4-205.33 257.2-268.43 409-1.96 3.6-2.54 9.5-7.33 10.4-101.28 29.7-204.66 55.8-310.5 61-8.92 0.1-1.095-15-3.745-20.2-0.713-169.9 89.875-321.4 184.44-455.8 118.5-47.9 247.47-65 374.59-66.2-78.74-38.7-167.99-61.9-255.9-47.5 70.64-120.8 186.5-207.24 303.13-280.66 17.65-9.39 33.67-26.74 55.72-20.96 174.92 7.55 331.04 94.12 487.14 164.12-171.8 16.8-337.21 76.1-487.61 159.6-108.57 59-210.78 128.8-313.15 197.8-1.2 1-3.71 1.9-1.94 3.7 170.95-106.1 346-209.4 536.73-276.1 124.97-42.9 257.17-68.3 389.67-63.2 159.1 4.4 314.9 49.2 458.5 116.5 170.2 79.5 325.2 187.9 471.7 304.5 256.1 123.6 505.1 278.2 687.1 500.4 96 116.7 168.9 251.8 216.1 395.2 96.7 297.9 91.9 616.2 85.9 925.6 0.4 1.9 1 3.7 1.5 5.7 16.9-294 30.3-595.9-54.6-881.6-69.2-240.3-210.6-457.2-395.3-624.7-124.2-114.2-265.1-209-412.9-289.7 195.1-0.2 397.8 2.5 581.9 74.7-103.1-10.6-215.5 4.8-299.9 68.6 164.3 4.4 330.8-2 492.8 31.8 8.3 0.3 13.2 7.7 19 12.5 87.9 80.2 164.9 177.9 200.6 292.9-114.9-41.2-237.9-53-358.7-61.7 19.4 6.4 38.1 16.4 58.3 19.4 127.1 17.6 253.2 42.7 376.3 78.9-62.2-137.3-152.8-264.7-273.7-356.2-145.6-42.9-299.5-24-448.8-22 25.5-10.5 51.7-19.7 78.5-26.2 275.6 10.2 560.5 58.9 796.7 209.4 187.2 117.6 325.8 298.3 426.3 492.6 0.9 1.9 1.3 3.9 1.1 6-13.6 122.5-29.7 245-58.8 364.9-63.6-17.2-116.8-59.7-164.6-103.4 8.5-252.3-74-495.3-163.5-727.8 0.9 13.8-2.2 28.2 3.7 41.1 68 224.5 127.4 453.2 147 687.6 49.3 61.9 115.2 114.8 192.7 136.4 34.1-129.9 42.1-266.2 45.9-399 22.7 157.7 20.9 318.2 9.2 476.8 86.5 93.1 183.2 177.7 289.8 247.2 101.4-168.4 110.9-374.9 91.2-565.6-77-92.7-173.9-170.8-282.3-223.2 87.7 20.3 170.9 56.5 250.2 98.6-4.9-174.1-73.6-339.4-162.3-486.7-163-91-357.5-99.7-538-104 158.8-44.3 327.7-47.1 488.4-11.3-71-92.3-147-182.6-239.7-254.1-57.3-43.4-121.7-79.2-191.5-97.4-148 7.6-291 55.8-426 113.8 136.6-45.2 276-90.7 421-95.8 159.7 47.6 287.8 166 383.7 298.5-43-11.3-86.9-19.6-131.4-21.1-114.7-4.1-226.4 29.6-333.5 67 181.5 21.9 374 25 538.6 114.1 15.6 5.1 20.2 22 28 34.5 67.9 125.9 126.1 262.8 130.1 407.9 3.6 8.4-0.6 5.6-3.4 4-72.5-55.8-163.9-84.5-254.5-88.7 113.5 66.4 220.3 147.7 302.2 251.6 15.4 171.1 13.1 359.8-85.7 508.2-1.7 3.9-5 7-8.8 2.2-93-59.3-173.2-137.2-248.5-216.6 23-140.6 8.1-285-8.4-424.5 82.2 164.7 149.1 336.4 217.2 507.3 0.3-1.3 0.6-2.5 1-3.7-9.6-21-15.8-43.4-24.1-64.9-1.5-2.9 4.3 2.6 3-0.2-33.6-94.4-62.5-190.2-95.4-284.8-61.1-180-134.1-359-249.7-511.5-116.3-157-279.5-276.8-461.2-347.6-126.8-50.8-261.3-80.2-396.6-97.1-20.8-3-42.3-3.1-62.2-10.3-124.7-37.5-256.4-55-384.8-62.1 59.3-66.4 127.9-128.5 205.7-174.2 74.4-43.1 160.4-68 246.7-64.3-85.5 70.5-151.1 160.9-216.8 249.2 125.2-84.1 247-176.7 387-235.4 139.4 17.4 284 36.7 408.1 107.3 0 0.5-0.2 1.5-0.3 2-130.9 14.2-246.8 85.7-349.4 163.8 10.6-2.9 21-6.6 31.2-10.7-1.9-2.4 2.3-3 3.6-4.3 110.7-74 235-131 367.3-151.2 0.8-3.7-4.6-3.6-6.8-5.5-115.3-68-248.5-100.5-380.6-112.9 17.2-8.3 34.5-16.6 51.6-25.4-177.5-143.4-355.8-286.29-530.1-433.7 228.9 136.51 461.1 268.9 703.7 379.7 33.4-12.7 66.3-27.5 98-44.2 63.8-34.1 131.9-77.2 159.1-147.66-148.1-107.2-294.9-216.28-443.3-322.83 130.2 107.58 264.5 210.9 394.8 318.44-2.7 21.65-15.6 40.85-29 57.45-46.2 49.5-111.4 73.8-174.2 94.8-4.3 2.4-9.3 1.8-13.7 0.3-249.4-109.2-491.6-234-732.9-359.77 158.4 155 320.7 307.37 498.8 439.97 0.8 1.9 9.8 4.7 6.2 7.7-92.3 45.7-190.2 79.6-289.9 105 31.8-37.3 72.3-68 108.4-100.3-99.9-11.8-200.8 15.7-287.4 64.9-125.1-60.3-241.8-136.3-358.5-211.4 51.3-126.94 121.3-248.58 215.9-348.51 85.4-89.62 194.3-155.63 312.2-192.78 164.1-52.6 337.5-61.99 508.2-74.41 14.8 0.62-1.4-3.33-4.4-1.71-158.4 5.06-319.7 3.77-473.5 47.7-140.6 38.72-269.1 118.7-366.5 227.19-104.5 114.23-178.4 252.76-235.6 395.72-43.5 110.3-78.3 224-105.4 339.5-12-3.9-22.9-11.2-34.5-16.3 40.8-138.9 89.5-275.9 151.1-407.1 63.1-131.9 140-259.53 244.5-362.94 112.7-113.62 262.2-187.35 419.4-214.35 152.7-28 308.8-22.8 463.1-16.13 3.2 0.12 11.9-3.33-0.5-1.72-128.7-10.85-258.2-24.77-387.2-11.8-131.6 11.23-261.5 52.49-372 125.53-135.4 88.36-239.9 216.76-321.1 355.12-95.3 161.79-162.2 338.49-217.4 517.39-5.5-3.7-13.9-6.8-13.2-14.7-7.5-75.2-20.2-150-40.8-222.7-5.2-13.5-3.3-28.2-2.1-42.2 12.5-160.2 35-322.72 100.4-470.8 3.9-6.12 0.1 8.55 0.6 9.11-15.6 98.61-4.1 206.15 53 290.34 12.5-164.06 16.7-330.44 59.3-490.34 0.7-4.76 2.4-9.47 6.1-12.75 87.2-89.69 191.4-167.82 312.9-203.19-48.2 112.73-65.4 235.33-82.9 355.77 11-19.85 21-44.25 26.3-67.58 23.3-123.89 56.3-246.1 98.8-364.77zm1022.7 316.3c19.5 44.12 39.2 88.36 63.8 130 45.7 79.11 110.2 145.62 181.1 202.6-22.2 39.11-70.9 59.88-114.4 46.81-259-71.35-489.1-214.81-721.9-344.29 12.6 12.87 28.7 21.74 41.2 34.65-1.6-0.21-3-0.4-4.5-0.53 11.7 9.86 24.2 18.85 37.2 27.1-2.7-5.15-18.2-12.94-14.5-14.47 211.1 127.03 423.4 259.13 660.3 332.49 60 2.6 121.7-18.86 164.6-61.46 4.5-2.91-0.6-6.9-2.6-9.47-96.5-114.67-192.6-229.83-290.3-343.43zm-1339.6 560.51c19.9 22.2 37 52.1 55.9 77 52.9 77 114.7 149.3 191.3 203.8 7.1 1.5 1.9 6.4-0.7 8.1-44.4 36.5-84.1 78-122.6 120.4-69.9-3.6-140-1.7-210-2.4-12.8-4.6-24.9-11.3-36.8-17.7 32-132.3 70.3-263.6 122.9-389.2zm28.5 21.9c99.6 70.5 199.5 141.5 306 201.5-19.9 13.2-39.9 26.4-58.6 41.2-1.9 2.1-4.6-0.4-5.9-1.8-84.9-75.7-165.5-156.4-241.5-240.9zm-1312.6 20.3c-185.48 148.4-369.61 308.6-488.66 517.5-4.7 6.5-6.1 18.1-16.47 17.4-56.98 11.5-116.94 20.9-174.29 6.7-2.99 0-3.73-2.5-2.77-5 35.89-114.3 84.39-224 133.44-333.1-66.8 112.8-125.67 231.7-163.79 357.5 74.26 21.1 153.53 5.3 224.59-20.1 134.46-189.4 298.3-356 469.35-512 7.3-8.9 12.8-19.1 18.6-28.9zm348.3 152.9c1.1 0-3.1 4.5-3.6 5.5-66.7 81.7-111.2 179-142.9 279-28.1-0.5-56.3 1.5-84.3 5.2 63.7-105.6 131.5-213.6 230.5-289.7h0.3zm1527.1 63.2c0.6 0.1 0.7 0.4-0.5 1.4-64.1 41.4-123 90.4-183.9 135.9 30.6-39.7 63.2-78.5 97.5-115.1 27.2-9.2 56.7-13.7 84.5-21.7 0.8-0.2 1.8-0.5 2.4-0.5zm-1623.9 160.2c102.9 21.6 206.6 47.9 299.5 98.7 4 1.2 1.9 5.1-3.4 2.2-106.6-16.5-213.1-38-321.3-39.8 6.8-20.8 16.4-41 25.2-61.1zm1570.3 90.3c160.8 13.5 321.6 47.6 470.7 110.6 178.3 74.6 332.9 203.2 440 363.8-99.5-125.1-223.4-232.1-366.4-304.9-186.4-98.4-396.5-142.7-605.1-161.5 19.7-3.5 40.6-5.4 60.8-8zm-1114.4 168.3c66.1 85.5 129.7 173.9 186.1 265.9 5.3 7.7 10.1 15.9 14.9 24 12.9 21.5 25.2 43.5 38 64.9 30.1-11.8 56.6-31.4 82.1-50.9 17.9 19.3 38.7 36 61.2 49.6 18.4-22.9 36-46.6 55.2-68.7 4.9-7.1 10.8-13.4 16.5-19.9 68.9-82.1 143.1-160.1 219.9-234.8-66.7 98.8-131.9 199.7-190.3 303.4-8.6 17.2-17.5 35.4-27.7 51.2-3.8 10.4-8.5 20.8-14.8 30.1-6.2 16.2-14.5 31.5-21.5 47.3-2 6.3-5.5 11.9-7.7 18.1 9.9 48.2 24.8 95.5 36.6 143.2-104.1 23.7-206.1-39.9-268.2-119.1-0.1-9.6 7.2-17.7 9.3-26.9-43.6-166.2-116-322.8-189.6-477.4zm-555.3 99.5c-159 18.5-318.6 51.5-464.41 119.4-108.14 158.3-172.41 343-205.41 530.9 110.52-98.4 240.44-178.4 383.92-218.6-7.4 8.9-18.5 13.9-26.4 22.4 12.9-7.4 25.5-15.4 37.5-24.1-2.2-1.1-4.9-0.1-7.2 0.1 20-17.5 42.5-32 62.3-49.7-147.84 47.3-295.71 108.4-411.32 214.9 32.57-158.4 90.72-312.7 178.68-448.8 141.64-65.5 293.14-106.8 444.44-142.9 0.9-1.1 15.3-1.1 7.9-3.6zm2326.2 72.7c7.3 204.8 19.1 410.6-2.4 615-2 3.4-6.4 1.2-9.5 1.2-12.2-144.3-48.7-287.1-110.2-418.4-11.5-10.4-25.8-16.9-38.8-25-125.1-70.5-262.4-119.2-402.4-149.3 146.4 54.7 292.9 113.5 424.5 198.5 65.3 146.1 98.7 307.1 104.5 465.8-96.7-120.8-234.6-198.3-372.7-262.6 17.5 19.8 37.9 37 54.8 57.5-2.5-0.8-4.9-1.6-7.3-2.4 8.2 9.5 18.6 16.7 27.6 25.5-3-8.7-13.2-13.6-17.6-21.9 67.8 28.9 132.4 66.3 189.8 112.5-37.5-10.1-74.2-22.6-110.2-37.1-11.8-5.1-18.4-18.7-30.2-22.9 92.6 97 181.6 200.4 241.8 321.3 2.3 4.1 3.9 8.6 3.3 13.5-27.2 169.7-84.9 336.9-185 477.9-24.9-97.4-75.3-189.2-148.6-258.5 49.5 133.6 74.7 278 59.9 420.3-44.3 94.9-99.3 186.9-175.6 259.7-58.4 56.5-130.6 98.2-208.3 121.8-3.3 0.3-7.8 4.7-9.8 0.5-61.6-87.2-91.9-204-50.9-306.3 85.6-171.3 206.8-321.1 322.6-472.4-10.7 4.7-20.5 11.1-31 16.2 4.3-8.5-1.8-1.7-5.3 2.1l0.4 2.4c-119.9 140.2-249.8 278.1-324 449.4-42.6 128.1 12.3 261 72.8 373.3 105.9-25.8 198.8-91.8 272.2-170.8 71.6-77.7 128.8-167.9 175.2-262.7 7.5-134.2-18.7-271.3-80.6-391.2 77.4 75.9 109.4 184.7 132.4 287.5 105.9-170.3 182.6-361.6 202.2-562.2-47.3-97.7-116.9-182.8-193.1-259.2 37.5 15.4 76.1 28.4 116 35.9 40 33 74.4 73.7 108.9 111.4 0.6-34.9-2.8-69.6-3.8-104.4 8.4-3.3 22.2 0.7 27.8-6.4 25.9-211.4 7.8-425.1-19.4-635.5zm-784.6 174.1c-42.5 78-86.3 155.7-128.7 233.8-4.2 7.5-6.8 16.3-12.6 22.7-40.4 76.3-78.5 154.4-118.4 230.7-2 8.1-6.9 18.9-12 25.3-30.7 69.2-64.9 138.3-94.7 208.6-6.1 9.5 5.1 18 6.2 27.6-49.8-8.2-97.6-30.8-133.9-66-48.2-45-76.5-106.8-94.5-169.2-1.8-7.9-7-18-0.3-25 34.6-52.6 40.8-120.5 21.5-179.8 12.8-0.4 25.3-4 37.9-6 26.9 87.2 58.6 173.7 103.3 253.6 24-29.9 45.5-62.1 69.8-91.5 5-8.3 11.4-15.9 17.5-23.5 51.8-68 102.7-136.8 155.7-203.8 4.4-7.8 10.9-15.7 17-22.7 54.1-72.4 109.9-144.1 166.2-214.8zm-814 173.7c50.3 65.8 120.8 121.4 204.4 134.5 15.1 50.3 18.1 106-1.7 155.4-29.5 76-103.5 127-181.4 143.6-49.5 10.5-106.6 10.6-150.8-15-28-13.3-51.2-38.7-60.2-68.5 2.3-6.5 7.2-12.9 12.4-17.4 43.1-60.3 79-125.8 113.1-191.2 2.9-8.7 7.4-17.4 12.5-25.2 16.2-38.5 35.4-77.3 51.7-116.2zm-1062.8 50.1c-121.02 79.2-236.53 172.7-319.16 292.8-13.83 199.1 32.98 398 110.96 580.6 39.22-100.7 89.88-204.3 178.83-270.9-78.17 105.9-124.99 232.7-142.33 362.7-1.65 8.4-2.7 17.4 1.26 25.4 44.88 135.6 108.84 269.3 213.09 369.6 45.7 43.2 98.7 79.1 157.1 102.9 1.8 1 3.7-0.1 4.7-1.7 33.3-46.4 66.5-93.5 91-145.3 34-68 53.1-146.9 36.1-222.3-47.2-170.9-149.5-318.6-243.7-466.3-2.1-2.8-3.3-6-3.7-9.3-7.9-8.4-23-12.7-33.6-22.2 92.5 163.6 188.9 327.3 246.7 507.1 22.8 108.2-26.2 219.7-102.1 295.3-2.9-0.5-5.8-1.7-8.5-2.9-59.6-27.1-114.1-65.2-159-112.8-80.24-86.2-127.64-197-160.2-308.7 6.39-143.6 56.11-282.3 124.31-407.8-82.67 58.5-146.7 142.2-185.93 235.3-2.1 2.5-3.37-4.3-4.42-5.2-75.22-149.6-104.25-318.8-104.81-485.1-0.54-5 0.29-10.2 3.81-14 81.22-116.1 190.03-208.9 299.59-297.2zm226.75 44.8c87.1 249.4 185.9 498.7 212.8 763.5 9.5 47.6-19.2 100.2-66.1 113.8-36.7-67.9-81.1-132.2-137-185.7-43.4-43-93.8-78.1-144.6-111.6 94.9 118.4 193.3 234.9 291.1 351.3 49.9-34.9 83.3-91.2 92.4-151.2-29.9-248.4-124.3-481.6-212.4-713.7 7.1 7.6 9.9 19 16.4 27.3-6.8-16.6-14.8-33.1-23.8-48.5 0.3 2.4 0.7 4.8 1.1 7.2-11-16.8-18.5-35.8-29.9-52.4zm1897.5 102.6c-12.5 14.2-22 31-34.7 44.9-3.4 3.8 1.3-6.4-1.8-2.2-9.3 12.3-18.8 24.8-26 38.6 4.7-3.8 11.2-15.7 14.7-16.6-123 217.9-251.3 436.8-321 678.8-2 60.4 22.6 123.5 67.1 163.4 115.3-104.1 230.7-208.5 344-314.6-67.2 33-133.8 69-191.3 117.4-51.1 42.3-95.5 92.1-135.2 145-41.9-18.7-62.7-70.6-48.8-114 68.2-264 206.9-501.5 333-740.7zm-854.7 143.7c20.7 70.8 48.7 149.2 108.5 199.2-45.7 5.5-93.6 0.7-138.2-11.4-3.4-47.8-5.9-96-13.1-143.5 13.1-15.3 30.3-27.8 42.8-44.3zm-58 159.7c10.3 0.1 18.4 8.1 12.7 23.5 48.4 35.8 113.2 31.7 170.2 29.7 9.3 6.6 19.2 12.5 28.8 18.6-63.1 14.9-130.5 13.2-193.2-3.8 59.9 48.7 153.4 56.2 219.5 16.1 26 9.8 53.1 16.8 80.7 20.2-11.7 55.4-20.1 111.7-27.5 167.9-79.5 36.1-172 39.4-255.9 17.5-3.1-63.6-7.2-127.7-22.2-189.8-12.8-29.1-39.7-57.8-31.6-91.6 5.3-5.7 12.3-8.4 18.5-8.3zm309.2 260.6c14.5 0.7 29.3 6.9 39.1 17.8 14 18.5 6.2 43.1-3.1 61.9-20.9 64.3-27.6 132-39.2 198.2-83.4 35.4-179 39.2-266.4 17.2-5.4-63.9-7.6-129-24.7-191.3-13.5-25-32.2-50-31.6-79.6 0.9-21.2 48.6-29.6 36.9 0 18.7 16 45 23.2 69.4 27.3 70 10.5 141.8-0.1 208.6-22.4 14.4-1.9 7.6-19.4 11-29.1zm-291.3 69.4c44.6 44.7 112.8 59.6 173.7 48 28.8-4.4 61-14.7 79.5-38-83 21.4-172.5 20.7-253.2-10zm1.9 171.8c7.3 10.6-0.3 34.9 3.6 49.9 28.3 19.9 63.6 26.5 97.5 29.1 68.1 4.7 137.2-5.6 201.5-28.4 2.5-14.2 3.7-28.7 5.5-43 17.9-5 50.2-5.6 51.7 20.1-0.9 32.2-21.6 58.6-35.4 86.2-15.4 63.3-20.4 128.6-23.9 193.4-0.2 4.3 1 13.9-7 12-93.2 20.4-195.3 19.4-282.9-21.3-10.1-69.3-19.9-139.1-39.4-206.5-8.2-18.3-16.9-38.4-12.9-58.7 4.5-19.1 23.6-29.8 41.7-32.8zm-3.4 83.4c70.8 70.9 191.2 63.9 270.2 10 7.5-4.8-6.4-4-8.7-2.5-85.3 24.2-178.1 24.5-261.5-7.5zm-9.7 194.3c5.1 10.4 2.1 26 7.2 37 65.8 23.1 136.4 32.8 206.1 31.2 40-2.6 82-8.9 115.6-32.3 2.3-10.7-0.7-22.5 1.3-33.4 18.3-2.9 46.8-1.2 51.7 21.5 5.3 33.6-14.2 64.2-26.6 93.9-11.1 75-6.9 151.2-1.9 226.5-104.8 24.6-218.5 22.3-318.3-20.5-11.7-76.6-22.2-153.7-44-228.2-9.6-22.3-23.3-44.4-23.4-69.4 0.8-16.3 18.2-24.2 32.3-26.3zm13.6 74.1c81.9 74 221.1 72.1 312.4 21.5 8.7-4.5-7.3-4.2-10-2.8-98.6 20.5-206 16.9-302.4-18.7zm352.8 217.7c25.3 3.2 56.1 12.2 66.1 38.6 8.8 24.4-0.7 50-11 72.2-24.4 85.4-36.1 173.7-48.1 261.4-107.6 49.5-233.7 53.1-347.4 23.8-4.2-85.6-9.7-171.9-30.2-255.4-17-33.5-40.7-66.1-42-105 0.7-27.4 35.7-33.6 56.6-25.6 1.2 12.9 2.8 25.7 4.6 38.5 63.5 23.1 131.4 32.9 198.8 35.3 53.3-0.2 110.7-4.7 156.4-34.8 1.9-15.9-2.9-32.8-3.8-49zm-352.8 90.4c90 74.9 242.9 74.8 343.1 25.3 9.6-4.4-8-4.3-10.9-2.9-108.4 19.3-226.3 14.3-332.2-22.4zm386.5 252.5c29.5 1.7 63.3 18.7 69.7 50.1 8.6 38.4-15 72-21.4 108.4-21.9 92.4-32.2 186.9-45.2 280.7-113.4 56.4-248.4 61.2-369.2 27.3-4.7-100.7-10.2-202.2-32.6-300.8-19.1-40.1-45.2-80.5-43.9-126.6 2-22.6 27-31.5 46.8-28 3.3 11.3 2.2 24.2 0.4 36 33.7 25.4 76.1 34.8 117.3 39.2 91.5 8.2 185-5.5 271.2-36.9 3.7-15.7 3.9-33.1 6.9-49.4zm-8.9 97.7c-4 0.1-9.6 1-11.2 1.9-118.7 31.4-247.8 39.6-363.8 14.8 98.5 64.8 266 47.6 375.8-13.1 5.3-2.7 3.1-3.6-0.8-3.6zm-383.4 247.5c6.2 35.4 3.1 77.5 4.8 115.3 33.7 27.4 77.1 39.1 119.4 44.5 99.2 10.9 200.4-6.5 292.9-42.7 5.8-33.9 7.5-70 12.5-104.6 23.3-5.7 58.7-1.7 64.1 26.7 7.4 50.8-21.1 97.6-39.1 143.3-19.2 110.2-17.8 222.6-19 334.1-131 38.5-276.8 30.8-400.3-29-1.5-0.6-2.2-1.5-2.2-3-19.9-112.5-39.4-225.5-72.3-335.1-14-33-31.1-69.5-19.8-105.7 8.2-25.4 34.3-39.1 59-43.8zm403.8 181.3c-4.2-0.1-10.1 0.7-11.8 1.5-125.4 27.8-261.8 32.1-384.3 3.7 104.1 67.9 281 55.7 397-1.6 5.5-2.6 3.2-3.5-0.9-3.6zm51.9 191c30.4 3.9 60.7 20.5 75 48.5 26.6 54.3 7.5 117.6-13.8 170.2-12.9 75.4-16.6 152.2-21.2 228.2-18.7 35.5-20 77.2-18.4 115.8-27.2-42.9-33.8-94.7-45.2-142.8-47.4 68.7-84.4 151.8-67.8 237.2-36.8 7.1-74.4 15.3-111.7 15.8-7.9-30.2-8.9-63.5 3.3-92.9 22-57.2 73-97.1 123.8-128-68.8-21.3-143.5 3.2-196 49.7-1.2 1-7.5 7-6.5 2.3 30.9-78.6 72.2-154.8 129.4-216.9-42.6 5-87.8 23.9-124.5 49.2-66.5 46-103 124.4-113.2 202.9-5.8 3.1-0.9-9.9-3.8-11.2-13.8-65.2-32.6-130.2-65.2-188.7-10.7-42.3-17.9-85.5-28.3-127.9-23.4-39.4-49.3-82.1-46.7-129.7 2.3-33.4 34.9-55.6 66.6-55.5 6.9 37.5 12.1 75.4 18.2 113 84.6 34.3 176 50.7 267 51.9 63.2-2 132.4-10.8 182-53.7 0.7-45.6-4.4-91.6-3-137.4zm-434.4 199.7c109.6 74.9 295.9 74.7 418 25.3 11.8-4.4-9.7-4.4-13.3-3-132 19.4-275.7 14.4-404.7-22.3zm-93.1 79.2c37.2 24.8 62.9 64.7 82.4 104.7 27.6 60 41.7 124.8 56.3 188.9 19.1-58.4 26.2-123.6 65.4-173.5 32.2-40 79.3-64.6 126.8-81.8-12.1 13.4-23.1 28.1-32.1 44-45.2 78.3-79 164.7-90.3 254.8 11.4-25.3 16.4-54.4 29.2-79.6 43.3-35.4 89.2-83.3 150.2-77.3 5.4 2.3 17.3-0.1 19.2 5.5-36.6 10.3-69.6 36.3-84.1 72.1-18 42.7-14.6 90.3-12.1 135.5-28.6-1.6-58.6 9.3-76.3 32.6-29.4-11.8-59.7-22.9-91.2-27.4-84.5 4.7-168 25.3-246.3 57.2-69.8-10.1-143-25.8-212.1-3.5 13.1-25.6 39.2-42 66.7-48.3 44.1-9.6 89.5-4.1 134.1-3.5-51.1-57.9-100.5-124.7-171.8-158.4 85.9 11 151.4 72.7 222.1 116.6-24-24.9-49.8-48.3-77.1-69.5-18-84.6-27.8-175.6-81.3-247 102.7 29.6 154.1 131.9 211.1 212.5-6.8-17.8-23.5-32.1-22.5-52.5-2.3-41.3-8.4-85.1-36-117.7 40.2 6.1 60 47 83.8 75.2 12.6-51.7 6.7-109.7-14.1-159.6zm622.4 142.6c-17 47.7-10.5 107.1 6 157.1-5 24.7-8.1 49.9-12.3 74.8 29.8-76.1 41.8-167 103.9-227.2-35.8 70.7-31.4 151.8-38.9 228.5 48.7-35.1 92.7-88.8 157.5-89.9 9.8 1.6 26.3 1.2 32.3 8.5-63.5 23.8-110 75.7-156 123.2-67.7 7.5-134.7 28-192.2 64.9-4.4 3.2-5.2-3.9-6.7-6.4-9.8-24.2-27.3-47-52.6-56.1-17.8-79.1-12.1-169.3 34.1-237.5 0.6 56.7 29.3 107.4 61.7 152 6.2-49.5 3.2-104.2 23.4-152.1 7.4-17.8 21.2-33.5 39.8-39.8zm-185 255c6.5 0.1 7.1 12.3 9 18.2-19.4-3.8-39.3 5.7-56.8-6 15.7-3.9 31.7-7 47.1-12.2h0.7z" transform="scale(.8)"/>
</svg>
