<?xml version="1.0" encoding="UTF-8" standalone="no"?>
<svg id="svg4136" xmlns:rdf="http://www.w3.org/1999/02/22-rdf-syntax-ns#" xmlns="http://www.w3.org/2000/svg" height="2262" viewBox="0 0 1601.0605 2261.9854" width="1601.1" version="1.1" xmlns:cc="http://creativecommons.org/ns#" xmlns:dc="http://purl.org/dc/elements/1.1/">
<path id="path4146" d="m753.99 2261c-195.74-13-353.46-161.3-382.27-359.5l-2.6159-18-0.34346-241.63-0.34347-241.63 4.4504-4.3681c5.4437-5.3429 48.737-55.079 48.314-55.503-0.16699-0.167-6.8049-0.7872-14.751-1.3783-207.68-15.5-365.89-162.1-404.42-374.88-3.1078-17.163-5.9057-14.359 18.521-18.565 70.155-12.08 141.8-9.2027 199.96 8.0307 137.39 40.71 241.2 133.81 291.5 261.41 3.1436 7.975 5.8167 14.612 5.9402 14.749 0.12351 0.1372 5.8104-6.1628 12.638-14 6.8271-7.8372 29.627-33.956 50.667-58.043l38.254-43.793v-17.208-17.208l-205-205-205-205v-334.75-334.75h27.5 27.5v118.25 118.25l108.75-108.81 108.76-108.75 19.24 19.261 19.24 19.26-128 127.99-127.99 128v166.51 166.51l27.254 27.241 27.254 27.241 92.246-92.25 92.246-92.25v-87.748-87.748h27.5 27.5v79 79h81 81v27.5 27.5h-88.752-88.752l-92.748 92.752-92.748 92.752 131 131 131 131v-125.75-125.75h27 27v183.5 183.5h116.5 116.5v-183.5-183.5h27.5 27.5v125.25 125.25l130.51-130.5 130.5-130.5-92.8-92.75-92.7-92.75h-88.252-88.252v-27.5-27.5h80.5 80.5v-79-79h27.5 27.5v87.752 87.752l92.254 92.25 92.254 92.25 27.746-27.759 27.746-27.759v-165.49-165.49l-128.5-128.49-128.5-128.49 19.24-19.259 19.24-19.259 109.26 109.25 109.26 109.25v-118.75-118.75h27 27v334.75 334.75l-204.5 204.5-204.5 204.5v26.772 26.772l55.647 63.729c30.606 35.051 55.918 63.614 56.25 63.473 0.3317-0.1405 2.213-5.5405 4.1807-12 39.334-129.12 155.23-249.83 272.42-283.73 3.3-0.95455 6.9-2.2173 8-2.806 2.524-1.351 25.873-8.3221 34.5-10.301 65.426-15.004 120.66-16.429 187.96-4.8494 24.352 4.1901 21.528 1.8036 18.991 16.054-17.044 95.722-54.3 174.95-109.98 233.88-2.5982 2.75-7.5919 8.0867-11.097 11.859-74.588 80.279-189.32 129.61-308.14 132.49l-26.764 0.6487 23.112 26.5c12.711 14.575 24.661 28.188 26.556 30.252l3.4442 3.7521-0.3386 239.25-0.3385 239.25-2.646 19c-30.828 221.36-219.55 377.13-439.26 362.54zm69-56.115c171.46-19.5 304.11-157.7 317.51-330.8l1.1175-14.429-50.756-50.764c-27.916-27.92-51.009-50.596-51.318-50.391-0.3087 0.205-24.186 54.169-53.061 119.92l-52.5 119.55-151.45-0.2278-151.45-0.2278-53.204-120.82c-29.262-66.45-53.412-121.03-53.667-121.28-0.2544-0.2544-23.063 22.839-50.687 51.318l-50.224 51.781 0.65552 13c10.15 201.29 195.93 356.53 399.02 333.42zm-52.98-281.7c-6.2704-10.862-29.852-51.7-52.403-90.75l-41.002-71 52.943-0.2588c29.119-0.1423 76.797-0.1423 105.95 0l53.007 0.2588-51.551 89.283c-28.353 49.105-51.806 89.947-52.118 90.758-0.49579 1.292 6.5447 1.4434 56.592 1.2173l57.158-0.2582 116.99-265.73 116.99-265.73-34.692-39.767c-19.081-21.872-35.731-40.892-37-42.267-1.2695-1.375-15.614-17.8-31.876-36.5-33.879-38.957-28.622-35.433-49.313-33.057-92.737 10.652-168.91 89.256-173.77 179.32-0.28908 5.356-0.7484 11.208-1.0207 13.004l-0.49508 3.2658-27.702-0.2658-27.702-0.2657-0.63876-11.719c-5.0973-93.518-78.571-171.56-172.44-183.16l-10.084-1.2462-65.416 74.877c-35.979 41.182-65.939 75.635-66.577 76.561-1.0715 1.5546 3.5101 13.089 16.558 41.684 0.50191 1.1 4.0702 9.2 7.9295 18 8.9213 20.342 29.837 67.744 32.211 73 0.99367 2.2 18.315 41.575 38.493 87.5 20.177 45.925 37.184 84.4 37.792 85.5 0.60858 1.1 1.1225 2.2581 1.1419 2.5736 0.0195 0.3154 22.259 51.053 49.422 112.75l49.35 112.4h57.323 57.323l-11.401-19.75zm-205.24-398.6c-19.79-6.5017-42.554-36.974-61.141-81.843l-4.0291-9.7268 10.316-5.5335c72.347-38.807 100.88-37.487 129.46 5.987 10.261 15.606 30.8 57.236 29.042 58.863-3.4905 3.2295-35.558 18.743-50.615 24.487-20.248 7.7235-43.019 11.058-53.037 7.7673zm403.49-0.5359c-20.002-4.3593-67.118-24.232-74.47-31.411-2.444-2.3865 15.913-40.401 28.893-59.832 20.056-30.025 36.145-37.926 64.028-31.444 4.1472 0.964 5.9879 1.0207 6.8681 0.2113 0.88544-0.8143 1.0286-0.7959 0.5429 0.07-0.43514 0.7754 1.2792 1.7389 5.0383 2.8317 13.587 3.95 53.135 21.918 60.173 27.339l2.3453 1.8065-3.6918 8.9237c-27.278 65.934-53.186 89.468-89.728 81.505zm172.68 7.0354c-0.9699-0.9699-2.2696 1.7315-17.986 37.384-3.1519 7.15-6.527 14.8-7.5001 17-0.9732 2.2-13.087 29.624-26.919 60.942l-25.15 56.942 38.803 38.812 38.803 38.813 0.2539-124.67c0.1397-68.567 0-124.92-0.3044-125.23zm-656.87 186.3 16.42-17.1-12.87-28.9c-7.0778-15.895-20.183-45.55-29.124-65.9-8.9403-20.35-16.859-37.924-17.598-39.054-0.73875-1.1294-2.2065-4.5044-3.2617-7.5-1.9192-5.4484-13.907-33.077-14.692-33.863-0.2291-0.2291-0.39407 57.146-0.36661 127.5l0.0499 127.92 22.512-23c12.382-12.65 29.9-30.695 38.931-40.1zm294.46-376.35c0-1.3962 13.156-22.955 21.081-34.545 18.977-27.754 49.318-54.636 77.824-68.953 17.693-8.886 62.12-26.502 72.394-28.705 5.916-1.2687 7.0648 0.785-11.279-20.164l-15.48-17.6h-140.61-140.61l-6.9063 8.19c-3.7984 4.5045-7.8063 9.2838-8.9063 10.621-1.1 1.3369-3.6087 4.2889-5.5749 6.56-9.3852 10.841-11.275 14.024-8.7392 14.721 12.356 3.3972 69.023 29.653 83.775 38.816 26.345 16.364 45.68 37.191 71.687 77.217 8.7791 13.512 11.353 16.668 11.353 13.92zm-319.56-55.977c18.545-1.2486 18.762-1.7278 11.323-25.068-16.631-52.181-44.008-99.468-82.065-141.75-13.32-14.798-31.67-32.036-29.371-27.591 24.923 48.196 32.391 122.34 18.225 180.94-1.2493 5.1677-1.848 9.3958-1.3305 9.3958 0.51756 0 6.4175 0.713 13.111 1.5845 23.358 3.0413 48.564 3.9342 70.108 2.4836zm744.56-1.5015c6.875-0.7723 14.788-1.7139 17.585-2.0924l5.0852-0.6881-2.2456-9.2889c-13.771-56.962-8.2493-119.7 15.332-174.21l3.986-9.214-10.258 9.512c-49.348 45.761-88.706 111.09-106.88 177.42l-2.4183 8.8255 9.1563 0.5987c5.036 0.3292 10.956 0.7761 13.156 0.993 7.6211 0.7515 45.057-0.4546 57.5-1.8525zm-879.71-23.5c26.525-109.49-43.815-239.06-140.8-259.36-36.293-7.5958-70.528-9.762-110.59-6.9976l-8.5876 0.59261 2.7111 9.6337c34.352 122.07 123.23 216.85 243.96 260.19 11.97 4.2963 11.221 4.5247 13.299-4.0548zm982.7-1.9519c110.24-44.016 195.27-138.23 227.33-251.88l3.3668-11.935-8.5995-0.59354c-40.07-2.7656-74.302-0.60006-110.6 6.9966-53.137 11.121-111.23 68.357-133.84 131.86-15.093 42.4-17.258 98.58-5.1706 134.2 0.4589 1.3525 9.8195-1.5928 27.507-8.6552z"/>
</svg>
